<svg id="Layer_1" data-name="Layer 1" xmlns="http://www.w3.org/2000/svg" viewBox="0 0 301.98 71.86"><defs><style>.cls-1{fill:#79c143;}.cls-2{fill:#f04c4d;}.cls-3{fill:#66cbf4;}.cls-4{fill:#faa819;}.cls-5{fill:#666766;}</style></defs><path class="cls-1" d="M94.31,22.49c-4.7-3.78-11.58.81-9.69,6.46.26.78.51,1.59.76,2.42.63-1.23,1.2-2.44,1.69-3.61,1.64-3.83,7.2-1.5,7.85,3.29,1.16,8.62.66,19-5.75,26.38a88.71,88.71,0,0,1-4.53,27.69c-1.88,5.67,5,10.26,9.71,6.46,8.89-7.18,17.84-18.42,17.84-34.56S103.21,29.65,94.31,22.49Z" transform="translate(-25.41 -21.11)"/><path class="cls-2" d="M41.92,31.05c.64-4.79,6.21-7.12,7.84-3.29.62,1.45,1.34,3,2.17,4.51.33-1.15.67-2.26,1-3.31,1.89-5.67-5-10.26-9.7-6.46-8.89,7.19-17.84,18.42-17.84,34.56s9,27.37,17.87,34.53c4.71,3.78,11.59-.81,9.7-6.46a89.33,89.33,0,0,1-4.55-26.85C41.29,50.83,40.71,40,41.92,31.05Z" transform="translate(-25.41 -21.11)"/><path class="cls-3" d="M85.38,31.37a50.15,50.15,0,0,1-8.86,12.32,44.74,44.74,0,0,1-8.1,6.48,42.56,42.56,0,0,0,7,3.53c3.54,1.4,2.16,8-1.94,9.25a37.37,37.37,0,0,1-5.06,1.23c6.63,1.1,13.89.25,19.73-5.64q.54-.54,1-1.11c0-.12,0-.23,0-.35A88.85,88.85,0,0,0,85.38,31.37Z" transform="translate(-25.41 -21.11)"/><path class="cls-4" d="M61.41,53.7a42.63,42.63,0,0,0,7-3.53,44.4,44.4,0,0,1-8.1-6.48,49.65,49.65,0,0,1-8.39-11.42A88.92,88.92,0,0,0,48.42,57c0,.43,0,.85,0,1.28a3.07,3.07,0,0,1,.25.26c5.84,5.89,13.11,6.74,19.74,5.64A36.66,36.66,0,0,1,63.36,63C59.25,61.67,57.87,55.1,61.41,53.7Z" transform="translate(-25.41 -21.11)"/><path class="cls-5" d="M151.27,76.39l-8.21-32.62V79.11a6.43,6.43,0,0,1-1.31,4.4,4.81,4.81,0,0,1-6.9,0,6.4,6.4,0,0,1-1.32-4.42V38.6q0-3.35,1.74-4.52A8.39,8.39,0,0,1,140,32.91h3.21a12.21,12.21,0,0,1,4.21.53,3.53,3.53,0,0,1,1.94,1.88,29.87,29.87,0,0,1,1.43,4.44l7.44,28,7.43-28a29.63,29.63,0,0,1,1.44-4.44A3.52,3.52,0,0,1,169,33.44a12.25,12.25,0,0,1,4.21-.53h3.22a8.36,8.36,0,0,1,4.71,1.17c1.16.78,1.75,2.29,1.75,4.52V79.11a6.43,6.43,0,0,1-1.31,4.4A4.49,4.49,0,0,1,178.09,85a4.35,4.35,0,0,1-3.39-1.47,6.33,6.33,0,0,1-1.33-4.4V43.77l-8.2,32.62c-.54,2.12-1,3.67-1.31,4.66A6.48,6.48,0,0,1,162,83.76,5.48,5.48,0,0,1,158.22,85a5.67,5.67,0,0,1-3.08-.79,5.57,5.57,0,0,1-1.95-2,11.07,11.07,0,0,1-1.1-2.71C151.82,78.49,151.55,77.46,151.27,76.39Z" transform="translate(-25.41 -21.11)"/><path class="cls-5" d="M233.46,78.31,231,71.88H210.21l-2.45,6.57a22.85,22.85,0,0,1-2.44,5.18A3.89,3.89,0,0,1,202,85a4.89,4.89,0,0,1-3.46-1.43A4.4,4.4,0,0,1,197,80.3a7.39,7.39,0,0,1,.35-2.17c.23-.74.62-1.78,1.15-3.1l13.1-33.25L213,38.34A17.73,17.73,0,0,1,214.66,35,6.73,6.73,0,0,1,217,32.86a8.29,8.29,0,0,1,7.19,0A6.92,6.92,0,0,1,226.53,35a14,14,0,0,1,1.5,2.78q.61,1.48,1.56,4l13.37,33a16.5,16.5,0,0,1,1.57,5.48,4.54,4.54,0,0,1-1.48,3.27A4.91,4.91,0,0,1,239.47,85a4.64,4.64,0,0,1-2.09-.44,4.15,4.15,0,0,1-1.47-1.18,10.93,10.93,0,0,1-1.28-2.31C234.18,80,233.79,79.1,233.46,78.31ZM212.93,64.1h15.3L220.51,43Z" transform="translate(-25.41 -21.11)"/><path class="cls-5" d="M259.72,78.66V38.32a6.82,6.82,0,0,1,1.43-4.71,4.76,4.76,0,0,1,3.7-1.57,5,5,0,0,1,3.79,1.55,6.73,6.73,0,0,1,1.45,4.73V78.66a6.79,6.79,0,0,1-1.45,4.75A4.91,4.91,0,0,1,264.85,85a4.75,4.75,0,0,1-3.68-1.59A6.8,6.8,0,0,1,259.72,78.66Z" transform="translate(-25.41 -21.11)"/><path class="cls-5" d="M322.08,41.47H310.77V78.66a6.79,6.79,0,0,1-1.44,4.76,4.77,4.77,0,0,1-3.7,1.56,4.86,4.86,0,0,1-3.75-1.57,6.79,6.79,0,0,1-1.45-4.75V41.47H289.11a5.73,5.73,0,0,1-3.94-1.17,4,4,0,0,1-1.29-3.09,3.92,3.92,0,0,1,1.34-3.15,5.86,5.86,0,0,1,3.89-1.15h33a5.81,5.81,0,0,1,4,1.19,4,4,0,0,1,1.31,3.11,3.9,3.9,0,0,1-1.33,3.09A5.86,5.86,0,0,1,322.08,41.47Z" transform="translate(-25.41 -21.11)"/></svg>